<?xml version="1.0" encoding="UTF-8" standalone="no"?>
<svg
   fill="#838383ff"
   height="16"
   width="16"
   viewBox="0 0 16 16"
   version="1.1"
   id="svg1"
   xmlns="http://www.w3.org/2000/svg"
   >
  <defs
     id="defs1" />
  <path
     d="m 1.75,1 h 8.5 C 11.216,1 12,1.784 12,2.75 v 5.5 A 1.75,1.75 0 0 1 10.25,10 H 7.061 L 4.487,12.573 A 1.458,1.458 0 0 1 2,11.543 V 10 H 1.75 A 1.75,1.75 0 0 1 0,8.25 V 2.75 C 0,1.784 0.784,1 1.75,1 Z M 1.5,2.75 v 5.5 c 0,0.138 0.112,0.25 0.25,0.25 h 1 A 0.75,0.75 0 0 1 3.5,9.25 v 2.19 L 6.22,8.72 A 0.749,0.749 0 0 1 6.75,8.5 h 3.5 A 0.25,0.25 0 0 0 10.5,8.25 V 2.75 A 0.25,0.25 0 0 0 10.25,2.5 H 1.75 A 0.25,0.25 0 0 0 1.5,2.75 Z m 13,2 A 0.25,0.25 0 0 0 14.25,4.5 h -0.5 a 0.75,0.75 0 0 1 0,-1.5 h 0.5 C 15.216,3 16,3.784 16,4.75 v 5.5 A 1.75,1.75 0 0 1 14.25,12 H 14 v 1.543 a 1.458,1.458 0 0 1 -2.487,1.03 L 9.22,12.28 a 0.749,0.749 0 0 1 0.326,-1.275 0.749,0.749 0 0 1 0.734,0.215 l 2.22,2.22 v -2.19 a 0.75,0.75 0 0 1 0.75,-0.75 h 1 a 0.25,0.25 0 0 0 0.25,-0.25 z"
     id="path1"
     style="fill:#838383;fill-opacity:1" />
</svg>
